<?xml version="1.0" encoding="iso-8859-1"?>
<!-- Generator: Adobe Illustrator 19.0.0, SVG Export Plug-In . SVG Version: 6.00 Build 0)  -->
<svg xmlns="http://www.w3.org/2000/svg" xmlns:xlink="http://www.w3.org/1999/xlink" version="1.1" id="Capa_1" x="0px" y="0px" viewBox="0 0 460 460" style="enable-background:new 0 0 460 460;" xml:space="preserve" width="512" height="512">
<g id="XMLID_1795_">
	<path id="XMLID_1794_" style="fill:#4C4D4D;" d="M150,375c0,5.523-4.477,10-10,10h-40c-5.523,0-10-4.477-10-10v-70h60V375z    M370,305h-60v70c0,5.523,4.477,10,10,10h40c5.523,0,10-4.477,10-10V305z M260,75h-60c-5.523,0-10,4.477-10,10v60   c0,5.523,4.477,10,10,10h60c5.523,0,10-4.477,10-10V85C270,79.477,265.523,75,260,75z"/>
	<path id="XMLID_1785_" style="fill:#343535;" d="M150,375H90v-60h60V375z M370,315h-60v60h60V315z"/>
	<path id="XMLID_1790_" style="fill:#737373;" d="M400,365H60c-33.137,0-60-26.863-60-60V165c0-33.137,26.863-60,60-60h340   c33.137,0,60,26.863,60,60v140C460,338.137,433.137,365,400,365z M260,85L260,85c0-5.523-4.477-10-10-10h-50   c-5.523,0-10,4.477-10,10v10h60C255.523,95,260,90.523,260,85z"/>
	<path id="XMLID_487_" style="fill:#343535;" d="M400,325H60c-11.046,0-20-8.954-20-20V165c0-11.046,8.954-20,20-20h340   c11.046,0,20,8.954,20,20v140C420,316.046,411.046,325,400,325z M265,343v-6c0-1.105-0.895-2-2-2h-66c-1.105,0-2,0.895-2,2v6   c0,1.105,0.895,2,2,2h66C264.105,345,265,344.105,265,343z"/>
</g>
</svg>
